<mxfile host="app.diagrams.net" modified="2021-09-28T21:50:27.529Z" agent="5.0 (X11; Linux x86_64) AppleWebKit/537.36 (KHTML, like Gecko) Chrome/94.0.4606.54 Safari/537.36" etag="YRXPSYUAN6ViTkyyXvOp" version="15.3.2" type="github">
  <diagram id="sliqrcAs1K_b2UE7N917" name="Page-1">
    <mxGraphModel dx="931" dy="555" grid="1" gridSize="10" guides="1" tooltips="1" connect="1" arrows="1" fold="1" page="1" pageScale="1" pageWidth="827" pageHeight="1169" math="0" shadow="0">
      <root>
        <mxCell id="0" />
        <mxCell id="1" parent="0" />
        <mxCell id="e4OVQBx6IscHMzTcZqmk-5" value="User" style="swimlane;fontStyle=1;align=center;verticalAlign=top;childLayout=stackLayout;horizontal=1;startSize=26;horizontalStack=0;resizeParent=1;resizeParentMax=0;resizeLast=0;collapsible=1;marginBottom=0;" vertex="1" parent="1">
          <mxGeometry x="90" y="70" width="190" height="254" as="geometry">
            <mxRectangle x="90" y="70" width="60" height="26" as="alternateBounds" />
          </mxGeometry>
        </mxCell>
        <mxCell id="e4OVQBx6IscHMzTcZqmk-6" value="+ id: Integer&#xa;+ name: String&#xa;+ email: String&#xa;+ phone: String&#xa;+ username: String&#xa;+ password: String&#xa;+ role_id: Integer" style="text;strokeColor=none;fillColor=none;align=left;verticalAlign=top;spacingLeft=4;spacingRight=4;overflow=hidden;rotatable=0;points=[[0,0.5],[1,0.5]];portConstraint=eastwest;" vertex="1" parent="e4OVQBx6IscHMzTcZqmk-5">
          <mxGeometry y="26" width="190" height="194" as="geometry" />
        </mxCell>
        <mxCell id="e4OVQBx6IscHMzTcZqmk-7" value="" style="line;strokeWidth=1;fillColor=none;align=left;verticalAlign=middle;spacingTop=-1;spacingLeft=3;spacingRight=3;rotatable=0;labelPosition=right;points=[];portConstraint=eastwest;" vertex="1" parent="e4OVQBx6IscHMzTcZqmk-5">
          <mxGeometry y="220" width="190" height="8" as="geometry" />
        </mxCell>
        <mxCell id="e4OVQBx6IscHMzTcZqmk-8" value="+ method(type): type" style="text;strokeColor=none;fillColor=none;align=left;verticalAlign=top;spacingLeft=4;spacingRight=4;overflow=hidden;rotatable=0;points=[[0,0.5],[1,0.5]];portConstraint=eastwest;" vertex="1" parent="e4OVQBx6IscHMzTcZqmk-5">
          <mxGeometry y="228" width="190" height="26" as="geometry" />
        </mxCell>
        <mxCell id="e4OVQBx6IscHMzTcZqmk-12" value="Extends" style="endArrow=block;endSize=16;endFill=0;html=1;exitX=0.433;exitY=1.051;exitDx=0;exitDy=0;exitPerimeter=0;" edge="1" parent="1" source="e4OVQBx6IscHMzTcZqmk-8">
          <mxGeometry width="160" relative="1" as="geometry">
            <mxPoint x="173" y="330" as="sourcePoint" />
            <mxPoint x="173" y="440" as="targetPoint" />
          </mxGeometry>
        </mxCell>
        <mxCell id="e4OVQBx6IscHMzTcZqmk-13" value="Role" style="swimlane;fontStyle=1;align=center;verticalAlign=top;childLayout=stackLayout;horizontal=1;startSize=26;horizontalStack=0;resizeParent=1;resizeParentMax=0;resizeLast=0;collapsible=1;marginBottom=0;" vertex="1" parent="1">
          <mxGeometry x="410" y="70" width="160" height="112" as="geometry" />
        </mxCell>
        <mxCell id="e4OVQBx6IscHMzTcZqmk-14" value="+ ld: Integer" style="text;strokeColor=none;fillColor=none;align=left;verticalAlign=top;spacingLeft=4;spacingRight=4;overflow=hidden;rotatable=0;points=[[0,0.5],[1,0.5]];portConstraint=eastwest;" vertex="1" parent="e4OVQBx6IscHMzTcZqmk-13">
          <mxGeometry y="26" width="160" height="26" as="geometry" />
        </mxCell>
        <mxCell id="e4OVQBx6IscHMzTcZqmk-20" value="+ role: String" style="text;strokeColor=none;fillColor=none;align=left;verticalAlign=top;spacingLeft=4;spacingRight=4;overflow=hidden;rotatable=0;points=[[0,0.5],[1,0.5]];portConstraint=eastwest;" vertex="1" parent="e4OVQBx6IscHMzTcZqmk-13">
          <mxGeometry y="52" width="160" height="26" as="geometry" />
        </mxCell>
        <mxCell id="e4OVQBx6IscHMzTcZqmk-15" value="" style="line;strokeWidth=1;fillColor=none;align=left;verticalAlign=middle;spacingTop=-1;spacingLeft=3;spacingRight=3;rotatable=0;labelPosition=right;points=[];portConstraint=eastwest;" vertex="1" parent="e4OVQBx6IscHMzTcZqmk-13">
          <mxGeometry y="78" width="160" height="8" as="geometry" />
        </mxCell>
        <mxCell id="e4OVQBx6IscHMzTcZqmk-16" value="+ (type): type" style="text;strokeColor=none;fillColor=none;align=left;verticalAlign=top;spacingLeft=4;spacingRight=4;overflow=hidden;rotatable=0;points=[[0,0.5],[1,0.5]];portConstraint=eastwest;" vertex="1" parent="e4OVQBx6IscHMzTcZqmk-13">
          <mxGeometry y="86" width="160" height="26" as="geometry" />
        </mxCell>
        <mxCell id="e4OVQBx6IscHMzTcZqmk-27" value="Relation" style="endArrow=open;html=1;endSize=12;startArrow=diamondThin;startSize=14;startFill=0;edgeStyle=orthogonalEdgeStyle;entryX=-0.013;entryY=0.084;entryDx=0;entryDy=0;entryPerimeter=0;" edge="1" parent="1" target="e4OVQBx6IscHMzTcZqmk-13">
          <mxGeometry relative="1" as="geometry">
            <mxPoint x="280" y="160" as="sourcePoint" />
            <mxPoint x="440" y="160" as="targetPoint" />
          </mxGeometry>
        </mxCell>
        <mxCell id="e4OVQBx6IscHMzTcZqmk-28" value="0..n" style="edgeLabel;resizable=0;html=1;align=left;verticalAlign=top;" connectable="0" vertex="1" parent="e4OVQBx6IscHMzTcZqmk-27">
          <mxGeometry x="-1" relative="1" as="geometry" />
        </mxCell>
        <mxCell id="e4OVQBx6IscHMzTcZqmk-29" value="1" style="edgeLabel;resizable=0;html=1;align=right;verticalAlign=top;" connectable="0" vertex="1" parent="e4OVQBx6IscHMzTcZqmk-27">
          <mxGeometry x="1" relative="1" as="geometry" />
        </mxCell>
        <mxCell id="e4OVQBx6IscHMzTcZqmk-30" value="partner" style="swimlane;fontStyle=1;align=center;verticalAlign=top;childLayout=stackLayout;horizontal=1;startSize=26;horizontalStack=0;resizeParent=1;resizeParentMax=0;resizeLast=0;collapsible=1;marginBottom=0;" vertex="1" parent="1">
          <mxGeometry x="90" y="440" width="160" height="86" as="geometry" />
        </mxCell>
        <mxCell id="e4OVQBx6IscHMzTcZqmk-31" value="+ calendar: String" style="text;strokeColor=none;fillColor=none;align=left;verticalAlign=top;spacingLeft=4;spacingRight=4;overflow=hidden;rotatable=0;points=[[0,0.5],[1,0.5]];portConstraint=eastwest;" vertex="1" parent="e4OVQBx6IscHMzTcZqmk-30">
          <mxGeometry y="26" width="160" height="26" as="geometry" />
        </mxCell>
        <mxCell id="e4OVQBx6IscHMzTcZqmk-32" value="" style="line;strokeWidth=1;fillColor=none;align=left;verticalAlign=middle;spacingTop=-1;spacingLeft=3;spacingRight=3;rotatable=0;labelPosition=right;points=[];portConstraint=eastwest;" vertex="1" parent="e4OVQBx6IscHMzTcZqmk-30">
          <mxGeometry y="52" width="160" height="8" as="geometry" />
        </mxCell>
        <mxCell id="e4OVQBx6IscHMzTcZqmk-33" value="+ method(type): type" style="text;strokeColor=none;fillColor=none;align=left;verticalAlign=top;spacingLeft=4;spacingRight=4;overflow=hidden;rotatable=0;points=[[0,0.5],[1,0.5]];portConstraint=eastwest;" vertex="1" parent="e4OVQBx6IscHMzTcZqmk-30">
          <mxGeometry y="60" width="160" height="26" as="geometry" />
        </mxCell>
      </root>
    </mxGraphModel>
  </diagram>
</mxfile>
